<svg class="svg-icon" style="width: 1em; height: 1em;vertical-align: middle;fill: currentColor;overflow: hidden;" viewBox="0 0 1024 1024" version="1.1" xmlns="http://www.w3.org/2000/svg">
  <path d="M512 64C264.6 64 64 264.6 64 512s200.6 448 448 448 448-200.6 448-448S759.4 64 512 64z m0 820c-205.4 0-372-166.6-372-372s166.6-372 372-372 372 166.6 372 372-166.6 372-372 372z" />
  <path d="M512 336c-97.2 0-176 78.8-176 176s78.8 176 176 176 176-78.8 176-176-78.8-176-176-176z m0 288c-61.9 0-112-50.1-112-112s50.1-112 112-112 112 50.1 112 112-50.1 112-112 112z" />
  <path d="M512 240c-8.8 0-16-7.2-16-16v-80c0-8.8 7.2-16 16-16s16 7.2 16 16v80c0 8.8-7.2 16-16 16zM512 880c-8.8 0-16-7.2-16-16v-80c0-8.8 7.2-16 16-16s16 7.2 16 16v80c0 8.8-7.2 16-16 16zM240 512c0-8.8 7.2-16 16-16h80c8.8 0 16 7.2 16 16s-7.2 16-16 16h-80c-8.8 0-16-7.2-16-16zM672 512c0-8.8 7.2-16 16-16h80c8.8 0 16 7.2 16 16s-7.2 16-16 16h-80c-8.8 0-16-7.2-16-16z" />
  <path d="M512 400c-8.8 0-16-7.2-16-16v-48c0-8.8 7.2-16 16-16s16 7.2 16 16v48c0 8.8-7.2 16-16 16zM512 688c-8.8 0-16-7.2-16-16v-48c0-8.8 7.2-16 16-16s16 7.2 16 16v48c0 8.8-7.2 16-16 16zM400 512c0-8.8 7.2-16 16-16h48c8.8 0 16 7.2 16 16s-7.2 16-16 16h-48c-8.8 0-16-7.2-16-16zM688 512c0-8.8 7.2-16 16-16h48c8.8 0 16 7.2 16 16s-7.2 16-16 16h-48c-8.8 0-16-7.2-16-16z" />
</svg>
