<?xml version="1.0" standalone="no"?>
<!DOCTYPE svg PUBLIC "-//W3C//DTD SVG 20010904//EN"
 "http://www.w3.org/TR/2001/REC-SVG-20010904/DTD/svg10.dtd">
<svg version="1.0" xmlns="http://www.w3.org/2000/svg"
 width="1200.000000pt" height="1200.000000pt" viewBox="0 0 1200.000000 1200.000000"
 preserveAspectRatio="xMidYMid meet">

<g transform="translate(0.000000,1200.000000) scale(0.100000,-0.100000)" stroke="none">
<path d="M8383 9405 c-29 -8 -83 -30 -121 -49 -62 -31 -74 -34 -128 -29 -41 4
-79 0 -117 -11 -31 -9 -274 -128 -540 -265 -265 -136 -527 -271 -582 -299 -55
-28 -123 -71 -150 -96 -30 -25 -213 -134 -440 -261 -663 -370 -1126 -629
-1755 -980 -333 -186 -758 -423 -945 -528 -187 -104 -378 -211 -425 -237 -47
-26 -294 -164 -550 -307 -256 -143 -562 -314 -680 -380 -118 -66 -369 -206
-557 -311 -188 -105 -364 -206 -391 -225 -93 -63 -232 -80 -389 -47 -88 19
-158 -2 -320 -97 -162 -94 -186 -113 -228 -176 -103 -158 -79 -359 59 -484 40
-37 101 -71 257 -145 112 -53 281 -134 374 -179 588 -282 709 -339 742 -347
66 -16 1647 -6 1868 12 183 15 1996 148 2200 162 88 6 106 4 137 -12 l36 -19
-135 -285 c-164 -347 -416 -880 -628 -1330 -154 -326 -159 -337 -163 -411 -6
-100 11 -166 59 -238 47 -70 167 -164 254 -199 72 -30 185 -33 255 -8 62 23
140 78 175 124 16 22 55 56 86 76 114 74 145 118 302 433 l145 289 66 33 c43
21 99 64 169 129 77 72 141 120 251 187 177 108 216 138 254 190 16 22 154
288 307 590 152 303 356 706 453 898 l176 347 215 70 c119 38 353 112 521 165
168 53 681 216 1140 362 459 146 1088 345 1398 443 309 99 585 191 613 207 65
35 131 108 157 175 27 66 192 822 192 876 0 60 -55 267 -84 317 -35 59 -120
131 -186 157 -66 26 -158 27 -537 4 -223 -13 -247 -16 -299 -40 l-56 -26 -358
0 c-284 0 -373 3 -432 15 -83 17 85 26 -1763 -86 -368 -22 -678 -39 -688 -37
-13 2 13 22 79 60 54 31 151 86 214 123 63 37 139 81 169 98 l55 31 165 -33
c206 -41 272 -40 378 7 40 18 209 99 377 181 249 122 312 157 350 194 83 84
116 182 116 352 0 229 -56 326 -255 445 -49 29 -117 79 -150 110 -58 55 -381
257 -480 301 -60 27 -165 33 -232 14z m267 -466 c125 -75 170 -107 172 -123 2
-15 43 -45 151 -110 l148 -89 -3 -86 -3 -85 -315 -152 -315 -153 -217 45 -217
45 -913 -527 c-502 -290 -1012 -584 -1133 -654 -673 -389 -888 -513 -1155
-667 -162 -94 -450 -260 -640 -370 -190 -110 -555 -320 -812 -469 -256 -148
-466 -270 -464 -271 1 -1 139 4 306 12 168 8 645 31 1060 50 813 38 877 44
1020 100 134 53 133 53 198 10 52 -35 184 -138 303 -237 l45 -38 100 0 99 -1
63 -88 c58 -83 63 -94 72 -166 l10 -78 -32 -36 c-106 -122 -306 -332 -321
-337 -12 -4 -32 5 -56 24 l-36 29 -385 -28 c-212 -15 -700 -51 -1085 -79 -385
-27 -781 -58 -880 -68 -149 -14 -269 -17 -695 -15 -283 2 -652 -1 -819 -6
l-304 -10 -211 101 c-116 55 -292 140 -391 187 -99 48 -278 134 -397 191 -128
61 -214 108 -209 113 5 5 46 30 92 57 77 44 86 46 119 37 19 -6 89 -10 155
-10 94 1 141 6 215 26 137 36 208 65 249 102 20 17 81 57 136 87 145 80 610
339 750 418 66 37 260 145 430 240 171 95 364 203 430 240 66 37 467 261 890
498 424 236 966 539 1205 672 239 134 530 296 645 360 322 180 776 434 1020
570 122 69 233 138 250 156 21 23 192 116 577 313 301 155 550 281 553 281 4
0 22 -12 42 -27 l35 -27 141 72 c78 39 146 71 150 71 5 1 84 -44 177 -100z
m-1419 -1759 c-53 -107 -138 -280 -188 -385 -51 -104 -148 -305 -216 -445
l-124 -255 -274 -99 c-151 -55 -300 -113 -332 -129 -71 -37 -131 -101 -164
-175 -14 -31 -27 -58 -28 -60 -1 -1 -45 29 -96 68 -52 39 -127 87 -168 108
-68 33 -84 37 -168 40 -97 4 -191 -16 -274 -58 -61 -31 -193 -48 -467 -61
-145 -6 -265 -9 -267 -7 -2 2 130 81 293 175 163 94 569 328 902 520 333 192
697 403 810 468 113 65 351 203 530 306 179 103 325 187 326 186 1 -1 -41 -90
-95 -197z m4379 93 c12 -67 11 -71 -65 -423 -43 -195 -79 -356 -80 -358 -2 -2
-79 -27 -172 -57 -541 -171 -1174 -372 -2253 -715 -956 -304 -1457 -463 -1490
-472 -19 -5 -40 -15 -46 -21 -7 -7 -164 -313 -350 -682 -186 -368 -402 -796
-480 -950 l-142 -280 -61 -40 c-246 -159 -335 -223 -401 -287 -65 -63 -87 -78
-164 -108 l-88 -35 -169 -337 -169 -337 -79 -56 c-44 -31 -94 -74 -112 -96
l-31 -39 -38 30 -38 30 98 208 c53 114 330 700 615 1302 285 602 569 1202 631
1334 l113 239 -178 138 -178 138 -6 67 c-4 38 -3 71 2 74 5 3 163 61 352 130
l343 125 102 210 c56 116 204 419 328 675 l226 465 612 36 c337 20 692 42 788
48 908 56 908 56 996 38 69 -14 147 -17 506 -17 l425 0 38 30 c21 17 41 30 44
31 20 3 437 26 493 28 l66 1 12 -67z"/>
<path d="M9575 6660 c-280 -21 -706 -52 -945 -69 -239 -18 -435 -33 -436 -34
-15 -17 -280 -523 -275 -525 4 -1 221 62 482 142 261 79 751 228 1089 331 338
103 617 189 619 191 2 2 -2 3 -10 3 -8 -1 -243 -18 -524 -39z"/>
<path d="M5454 9200 c-86 -20 -145 -92 -146 -178 0 -59 4 -68 127 -287 87
-156 106 -182 144 -207 72 -45 164 -37 224 20 42 40 60 80 60 138 0 48 -10 69
-113 254 -115 205 -144 241 -205 255 -55 13 -60 13 -91 5z"/>
<path d="M4574 8715 c-71 -36 -99 -81 -99 -164 0 -65 1 -69 103 -251 110 -197
146 -242 210 -261 126 -37 258 76 238 203 -8 46 -191 384 -235 432 -32 35 -95
65 -137 66 -16 0 -52 -11 -80 -25z"/>
<path d="M3755 8259 c-71 -20 -133 -121 -122 -199 3 -24 38 -99 87 -187 146
-261 147 -262 204 -289 28 -13 60 -24 71 -24 73 0 164 62 186 127 23 72 9 116
-101 313 -57 102 -113 196 -124 209 -45 51 -128 72 -201 50z"/>
<path d="M2905 7786 c-69 -30 -124 -130 -110 -199 7 -34 181 -359 223 -416 47
-63 143 -88 219 -56 106 44 142 158 87 268 -43 84 -164 299 -191 339 -46 67
-152 97 -228 64z"/>
<path d="M2104 7330 c-85 -19 -136 -81 -142 -174 l-3 -61 105 -189 c58 -104
118 -203 133 -219 52 -55 136 -73 206 -43 71 29 125 127 111 201 -7 40 -201
395 -236 432 -43 46 -111 67 -174 53z"/>
<path d="M1231 6848 c-25 -13 -59 -40 -75 -61 -27 -34 -31 -47 -31 -100 0 -60
3 -68 110 -261 116 -210 137 -236 212 -255 122 -33 247 78 229 201 -4 28 -46
113 -115 238 -121 219 -146 246 -236 256 -40 4 -59 1 -94 -18z"/>
<path d="M10955 5536 c-52 -32 -89 -96 -89 -156 1 -57 116 -420 150 -473 65
-99 225 -100 300 -2 50 66 46 116 -29 353 -69 214 -91 258 -150 286 -53 24
-134 21 -182 -8z"/>
<path d="M10121 5279 c-46 -14 -81 -42 -108 -87 -37 -60 -31 -113 36 -322 74
-232 73 -229 107 -264 57 -57 135 -71 209 -37 72 33 105 86 105 168 0 65 -122
442 -156 483 -46 55 -125 79 -193 59z"/>
<path d="M9235 4997 c-50 -20 -80 -45 -104 -88 -34 -59 -25 -120 48 -346 67
-208 86 -243 156 -274 71 -33 149 -18 208 39 29 28 62 119 54 149 -3 10 -33
110 -68 223 -58 187 -67 208 -104 246 -55 58 -125 76 -190 51z"/>
<path d="M8355 4717 c-78 -31 -125 -96 -125 -174 0 -48 122 -437 148 -473 92
-124 292 -88 332 60 15 55 13 61 -65 307 -57 176 -70 207 -100 236 -53 52
-127 69 -190 44z"/>
</g>
</svg>
