<svg class="svg-icon" style="width: 1em; height: 1em;vertical-align: middle;fill: currentColor;overflow: hidden;" viewBox="0 0 1024 1024" version="1.1" xmlns="http://www.w3.org/2000/svg"><path d="M270.2 409.2c-21.4 0-38.6 17.4-38.6 38.8s17.4 38.8 38.6 38.8c21.2 0 38.6-17.4 38.6-38.8s-17.2-38.8-38.6-38.8z"  /><path d="M932.6 497.8c-42.4-177-87.2-271-177-297.6-19.6-5.8-36.2-8-51.4-8-55.2 0-93.8 29.4-192.2 29.4-98.4 0-137-29.4-192.2-29.4-15.4 0-32 2.2-51.4 8-89.8 26.6-134.6 120.8-177 297.6-42.4 177-34.6 304.8 15.4 328.6 8.2 3.8 16.4 5.6 25 5.6 43.4 0 90.2-47.6 135.4-104 51.4-64.2 64.2-66 220.6-66h48.6c156.2 0 169.2 1.6 220.6 66 45 56.4 92 104 135.4 104 8.4 0 16.8-1.8 25-5.6 49.8-24 57.4-151.8 15.2-328.6z m-662.2 29.4c-43.2 0-78.4-35.6-78.4-79.2s35.2-79.2 78.4-79.2c43.4 0 78.4 35.6 78.4 79.2 0.2 43.8-35 79.2-78.4 79.2z m345.8-39c-22.2 0-40.2-18-40.2-40.2 0-22.2 18-40.2 40.2-40.2 22.2 0 40.2 18 40.2 40.2 0 22.2-18 40.2-40.2 40.2zM704 576c-22.2 0-40.2-18-40.2-40 0-22.4 18-40.2 40.2-40.2 22.2 0 40.2 17.8 40.2 40.2 0 22-18 40-40.2 40z m0-175.6c-22.2 0-40.2-18-40.2-40.2 0-22.2 18-40.2 40.2-40.2 22.2 0 40.2 18 40.2 40.2 0 22.2-18 40.2-40.2 40.2z m87.8 87.8c-22.2 0-40.2-18-40.2-40.2 0-22.2 18-40.2 40.2-40.2 22.2 0 40.2 18 40.2 40.2 0 22.2-18 40.2-40.2 40.2z"  /></svg>