<?xml version="1.0" standalone="no"?>
<!DOCTYPE svg PUBLIC "-//W3C//DTD SVG 20010904//EN"
 "http://www.w3.org/TR/2001/REC-SVG-20010904/DTD/svg10.dtd">
<svg version="1.0" xmlns="http://www.w3.org/2000/svg"
 width="1024.000000pt" height="1024.000000pt" viewBox="0 0 1024.000000 1024.000000"
 preserveAspectRatio="xMidYMid meet">

<g transform="translate(0.000000,1024.000000) scale(0.100000,-0.100000)"
 stroke="none">
<path d="M6318 8003 c-2 -71 -2 -130 -1 -132 1 -2 58 -12 125 -22 169 -26 283
-60 418 -127 96 -47 127 -68 191 -131 156 -155 209 -347 164 -602 -23 -132 -6
-91 -584 -1399 -71 -159 -170 -384 -201 -455 -250 -571 -409 -931 -447 -1015
l-25 -55 -168 340 c-92 187 -335 678 -540 1090 -713 1435 -696 1400 -719 1513
-30 146 -29 296 4 400 61 192 198 317 425 386 90 27 197 45 268 46 l42 0 0
140 0 140 -2132 -2 -2133 -3 -3 -132 -3 -133 50 0 c105 0 272 -45 393 -106
164 -83 378 -271 510 -448 92 -123 84 -110 723 -1311 226 -425 377 -709 453
-850 41 -77 130 -243 197 -370 67 -126 157 -295 200 -375 42 -80 99 -185 125
-235 26 -49 83 -155 125 -235 43 -80 133 -248 200 -375 237 -447 287 -541 325
-610 51 -94 177 -331 325 -610 67 -126 159 -300 205 -385 46 -85 107 -201 137
-258 l55 -102 205 2 205 3 112 245 c113 244 320 693 391 845 20 44 77 166 125
270 48 105 105 226 125 270 21 44 77 166 125 270 48 105 147 318 220 475 73
157 185 400 250 540 65 140 137 296 160 345 23 50 80 171 125 270 46 99 100
216 120 260 79 169 232 500 347 750 197 429 299 626 443 860 143 233 303 445
416 551 200 187 449 290 802 329 l58 7 -3 126 -3 127 -1462 3 -1461 2 -4 -127z
m-4878 -83 c0 -5 -9 -10 -19 -10 -11 0 -23 5 -26 10 -4 6 5 10 19 10 14 0 26
-4 26 -10z m618 3 c-10 -2 -26 -2 -35 0 -10 3 -2 5 17 5 19 0 27 -2 18 -5z
m283 -13 c28 -23 28 -23 -81 -9 -120 15 -134 28 -29 29 72 0 91 -3 110 -20z
m262 -16 c32 -20 56 -39 53 -41 -12 -13 -173 21 -213 44 -24 13 -43 26 -43 28
0 3 33 5 73 5 66 0 78 -3 130 -36z m126 25 c36 -6 80 -18 96 -27 45 -22 147
-93 142 -98 -2 -2 -47 4 -99 15 -80 16 -107 27 -167 67 -39 26 -71 49 -71 50
0 7 32 4 99 -7z m277 -4 c19 -14 19 -14 -1 -14 -11 0 -38 6 -60 14 l-40 13 41
1 c22 1 49 -6 60 -14z m179 1 c37 -16 149 -95 143 -102 -12 -11 -196 58 -228
85 l-35 30 43 1 c23 0 58 -6 77 -14z m191 -2 c18 -14 18 -15 -6 -8 -14 3 -32
10 -40 15 -12 7 -11 8 6 9 11 0 29 -7 40 -16z m169 -11 c29 -15 145 -102 145
-109 0 -2 -30 8 -67 22 -87 32 -183 89 -183 109 0 11 69 -4 105 -22z m161 1
c19 -15 33 -28 31 -31 -2 -2 -33 10 -68 26 -60 28 -62 30 -31 30 21 1 46 -8
68 -25z m280 -13 c33 -22 73 -54 89 -72 l30 -32 -70 37 c-38 20 -88 52 -110
71 -34 29 -37 34 -19 35 12 0 48 -18 80 -39z m134 3 c22 -20 39 -39 37 -41 -5
-4 -127 65 -127 72 0 3 11 5 25 5 15 0 42 -15 65 -36z m605 -10 c14 -19 22
-34 17 -34 -9 0 -72 66 -72 75 0 13 32 -11 55 -41z m87 -9 c8 -14 2 -12 -21 9
-17 17 -31 34 -31 39 0 14 39 -23 52 -48z m-238 -26 c39 -39 62 -66 51 -60
-33 16 -151 130 -136 131 7 0 45 -32 85 -71z m75 26 c39 -43 47 -55 36 -55
-10 0 -95 82 -95 91 0 19 19 7 59 -36z m-164 -35 c65 -57 91 -89 58 -71 -28
14 -162 144 -138 132 11 -5 47 -33 80 -61z m-2834 9 c106 -74 105 -75 -6 -19
-55 27 -106 50 -113 50 -7 0 -10 5 -7 10 13 22 55 8 126 -41z m304 -19 l80
-55 -92 -3 c-57 -2 -102 2 -115 9 -48 25 -157 102 -154 108 2 3 48 4 103 1
l98 -5 80 -55z m1913 31 c65 -33 187 -120 179 -128 -10 -9 -161 76 -207 116
-25 22 -41 40 -37 41 4 0 33 -13 65 -29z m-1632 -43 c46 -29 84 -56 84 -61 0
-8 -130 -1 -180 9 -24 5 -180 102 -180 112 0 3 43 2 96 -1 94 -5 96 -6 180
-59z m813 27 c36 -9 81 -25 100 -35 47 -24 124 -80 118 -86 -7 -8 -139 27
-180 48 -41 21 -137 87 -137 95 0 2 8 2 18 -1 9 -3 46 -12 81 -21z m398 -10
c59 -21 160 -83 184 -112 15 -17 -118 29 -179 62 -26 14 -63 39 -82 56 -40 35
-34 34 77 -6z m-1054 9 c47 -5 73 -17 143 -61 47 -31 83 -57 81 -59 -8 -9
-182 18 -210 33 -42 21 -147 92 -147 99 0 3 17 3 38 0 20 -3 63 -8 95 -12z
m2042 -55 c83 -65 97 -94 18 -36 -48 36 -112 97 -101 97 4 0 41 -27 83 -61z
m-1745 11 c51 -9 84 -23 144 -61 43 -28 76 -52 74 -55 -3 -2 -41 1 -84 7 -63
9 -94 20 -156 56 -42 24 -82 51 -89 60 -12 14 -10 15 16 10 17 -4 59 -11 95
-17z m1132 -15 c73 -35 174 -103 165 -111 -13 -13 -247 121 -247 142 0 8 8 4
82 -31z m543 -30 c33 -24 71 -55 85 -71 18 -20 4 -13 -51 24 -42 29 -87 64
-100 79 -29 31 -14 24 66 -32z m-846 -68 c35 -23 58 -43 52 -45 -24 -8 -149
39 -213 80 -38 24 -68 46 -68 50 0 16 171 -47 229 -85z m-519 53 c55 -14 108
-35 153 -62 104 -63 102 -67 -19 -42 -56 11 -102 29 -156 61 -119 69 -116 76
22 43z m1360 -69 c33 -24 59 -46 56 -48 -9 -9 -196 118 -196 134 0 8 71 -36
140 -86z m-555 25 c49 -25 104 -56 120 -70 l30 -25 -30 8 c-54 15 -109 41
-172 83 -35 22 -63 42 -63 44 0 11 33 0 115 -40z m-1852 -43 c42 -26 45 -33
18 -33 -11 0 -37 15 -59 33 -21 17 -52 42 -68 55 -25 20 -23 20 21 -4 28 -15
67 -38 88 -51z m245 22 l83 -50 -97 -3 -96 -3 -79 47 c-43 25 -82 51 -85 56
-5 7 26 9 92 6 98 -4 100 -4 182 -53z m178 29 c40 -5 201 -90 190 -101 -2 -3
-45 -2 -95 2 -82 6 -96 11 -165 51 -42 25 -76 49 -76 54 0 8 40 7 146 -6z
m1906 -66 c85 -57 107 -86 31 -41 -58 33 -143 93 -143 100 0 10 34 -8 112 -59z
m-1607 32 c44 -7 195 -83 195 -97 0 -3 -35 -2 -77 1 -63 5 -94 15 -160 47 -45
23 -88 48 -95 56 -13 16 10 15 137 -7z m659 -11 c71 -21 218 -100 198 -107
-35 -11 -236 69 -282 114 -20 20 -2 18 84 -7z m397 -25 c69 -28 163 -83 155
-92 -13 -13 -246 95 -246 114 0 10 31 2 91 -22z m-646 -51 c65 -34 106 -62 90
-63 -5 0 -47 7 -93 15 -62 11 -102 25 -158 57 -40 23 -74 45 -74 48 0 15 179
-29 235 -57z m1093 33 c69 -36 143 -89 112 -81 -38 11 -188 105 -166 105 4 0
28 -11 54 -24z m-519 -51 c76 -26 206 -93 197 -102 -15 -15 -253 88 -271 117
-8 13 -9 13 74 -15z m-1521 -22 c116 -64 116 -63 37 -63 -70 1 -70 1 -125 50
l-55 49 38 1 c26 0 60 -12 105 -37z m309 -16 c46 -23 83 -46 83 -50 0 -5 -44
-6 -97 -2 -88 6 -106 11 -175 48 -43 22 -78 45 -78 50 0 5 39 6 93 3 82 -6
101 -11 174 -49z m847 33 c43 -11 105 -35 137 -52 60 -33 78 -55 36 -44 -12 3
-47 10 -77 17 -54 11 -146 52 -185 83 -28 21 -8 20 89 -4z m894 -33 c85 -48
81 -62 -5 -19 -63 32 -124 79 -88 67 11 -3 53 -25 93 -48z m-1443 -19 c44 -22
82 -42 84 -44 12 -11 -13 -12 -96 -4 -79 7 -100 14 -167 50 -42 23 -76 44 -76
47 0 3 39 2 88 -2 74 -6 99 -13 167 -47z m161 11 c55 -7 100 -22 157 -50 43
-22 77 -43 74 -46 -3 -3 -43 0 -89 6 -62 8 -102 21 -156 48 -110 56 -108 59
14 42z m1237 -51 c43 -23 75 -43 73 -46 -8 -7 -101 35 -155 70 -63 40 -17 27
82 -24z m-523 11 c74 -20 195 -77 185 -87 -14 -14 -265 84 -265 103 0 7 -4 7
80 -16z m-335 -25 c49 -12 171 -72 163 -79 -2 -2 -37 3 -79 10 -68 12 -177 54
-219 85 -19 14 55 6 135 -16z m752 -19 c68 -27 136 -65 129 -72 -6 -7 -148 55
-176 77 -33 26 -26 25 47 -5z m-1635 -37 c49 -23 88 -45 88 -50 0 -5 -44 -7
-97 -5 -90 3 -104 6 -170 40 -40 21 -73 42 -73 47 0 6 35 10 82 10 76 0 90 -3
170 -42z m318 -15 l85 -43 -105 3 c-99 3 -109 5 -177 40 -40 21 -73 40 -73 43
0 3 42 4 93 2 85 -3 99 -6 177 -45z m295 -15 c102 -46 102 -51 1 -45 -74 5
-102 12 -163 41 -40 19 -73 38 -73 42 0 4 37 4 83 0 60 -5 101 -15 152 -38z
m570 27 c69 -16 175 -63 175 -78 0 -4 -8 -6 -17 -3 -10 2 -46 12 -80 20 -66
16 -190 75 -161 76 9 0 46 -7 83 -15z m454 -44 c30 -12 63 -29 75 -37 20 -16
20 -16 -9 -9 -34 8 -175 71 -175 79 0 6 42 -7 109 -33z m-796 8 c48 -9 173
-66 164 -75 -2 -3 -38 0 -78 7 -74 11 -180 50 -209 76 -13 12 -9 13 30 8 25
-4 66 -11 93 -16z m370 -68 c30 -11 67 -26 83 -35 l29 -15 -30 0 c-47 -1 -106
16 -176 49 l-64 30 52 -5 c28 -3 76 -14 106 -24z m425 -23 c24 -11 41 -23 38
-25 -8 -8 -165 49 -177 64 -14 16 75 -9 139 -39z m-1661 -5 c45 -20 80 -40 77
-45 -3 -4 -32 -8 -64 -8 -56 0 -60 2 -89 39 -51 64 -40 66 76 14z m318 -4 l70
-34 -95 -3 c-87 -3 -100 0 -170 29 -41 18 -79 37 -85 42 -6 5 34 7 100 5 101
-4 116 -7 180 -39z m285 -1 c110 -43 110 -50 5 -46 -75 3 -104 9 -172 38 -46
19 -83 38 -83 42 0 4 39 5 88 2 61 -5 109 -15 162 -36z m226 3 c27 -5 78 -23
114 -40 l65 -31 -82 5 c-76 5 -185 39 -217 67 -13 11 59 10 120 -1z m749 -44
c63 -20 91 -37 63 -37 -27 0 -142 39 -163 55 -19 15 -19 15 10 9 17 -4 57 -16
90 -27z m-407 -2 c61 -14 148 -52 140 -60 -14 -14 -226 41 -252 66 -15 14 41
11 112 -6z m-888 -79 l75 -31 -90 -6 c-95 -7 -127 -1 -223 44 l-47 22 80 5
c99 7 112 5 205 -34z m297 7 c40 -15 73 -32 73 -37 0 -4 -42 -6 -92 -4 -71 4
-110 12 -165 34 -40 16 -73 33 -73 38 0 19 183 -2 257 -31z m293 -4 c67 -21
98 -35 90 -42 -3 -2 -45 0 -95 4 -82 6 -181 35 -210 61 -17 16 146 -2 215 -23z
m635 17 c28 -7 66 -20 85 -29 58 -26 2 -21 -89 8 -109 35 -106 51 4 21z m-300
-48 c81 -26 94 -41 30 -33 -89 11 -139 23 -185 44 l-45 21 70 -6 c39 -4 97
-15 130 -26z m340 -45 c28 -9 44 -18 37 -21 -17 -5 -153 25 -172 39 -22 15 72
3 135 -18z m375 -3 c18 -12 2 -12 -25 0 -13 6 -15 9 -5 9 8 0 22 -4 30 -9z
m-1376 -26 c43 -15 73 -29 67 -33 -6 -4 -45 -8 -87 -10 -60 -1 -93 4 -155 24
-43 15 -79 31 -79 36 0 5 39 9 87 9 68 0 106 -6 167 -26z m308 -1 l83 -28 -79
-3 c-58 -2 -97 3 -153 19 -40 12 -76 26 -79 31 -3 4 29 8 70 8 55 0 97 -7 158
-27z m-602 -19 l75 -29 -50 -7 c-141 -18 -173 -10 -205 51 l-12 24 58 -5 c33
-2 93 -17 134 -34z m933 5 c37 -11 67 -22 67 -26 0 -3 -35 -3 -77 -1 -76 6
-178 31 -198 50 -16 15 133 -1 208 -23z m287 -19 c79 -15 100 -33 30 -25 -68
7 -130 25 -130 37 0 5 10 6 23 4 12 -3 47 -10 77 -16z m-644 -66 c81 -23 76
-34 -17 -34 -73 0 -219 30 -219 45 0 12 187 3 236 -11z m324 -4 l55 -18 -80 0
c-52 -1 -99 6 -135 18 l-55 18 80 0 c52 1 99 -6 135 -18z m-627 -12 c62 -19
68 -23 47 -29 -53 -15 -171 -9 -241 12 -38 12 -69 25 -69 30 0 5 43 9 96 9 70
0 115 -6 167 -22z m896 11 c97 -15 112 -32 23 -25 -76 6 -163 34 -112 35 14 1
54 -4 89 -10z m-1145 -60 c11 -9 -79 -24 -93 -14 -6 3 -18 19 -26 35 l-15 29
63 -21 c34 -11 66 -24 71 -29z m1533 15 c-3 -3 -12 -4 -19 -1 -8 3 -5 6 6 6
11 1 17 -2 13 -5z m-689 -41 l67 -17 -50 -8 c-52 -8 -200 14 -219 33 -17 16
131 10 202 -8z m282 6 c74 -12 103 -29 49 -29 -48 0 -152 20 -163 31 -13 12
33 12 114 -2z m-606 -15 c34 -10 65 -20 70 -25 14 -12 -137 -22 -179 -11 -131
34 -132 35 -105 43 45 13 152 9 214 -7z m975 -10 c10 -9 -55 -3 -69 6 -10 6
-2 7 25 3 22 -3 42 -7 44 -9z m-1289 -15 c41 -11 79 -24 84 -29 11 -11 -134
-24 -193 -17 -55 7 -155 36 -148 43 5 5 109 19 162 23 11 0 54 -8 95 -20z
m950 -48 c18 -5 21 -9 12 -15 -15 -9 -134 1 -166 14 -26 11 117 11 154 1z
m-315 -15 l40 -13 -57 -7 c-58 -8 -194 9 -204 26 -8 13 177 8 221 -6z m622 8
c-3 -3 -12 -4 -19 -1 -8 3 -5 6 6 6 11 1 17 -2 13 -5z m-1477 -14 c0 -5 -2
-10 -4 -10 -3 0 -8 5 -11 10 -3 6 -1 10 4 10 6 0 11 -4 11 -10z m555 -21 l40
-12 -35 -8 c-78 -18 -280 -2 -280 22 0 20 208 19 275 -2z m-350 -31 c78 -18
80 -19 62 -29 -29 -17 -190 -21 -217 -7 -40 22 -31 42 20 49 46 6 67 4 135
-13z m1208 5 c-7 -2 -21 -2 -30 0 -10 3 -4 5 12 5 17 0 24 -2 18 -5z m-268
-12 c30 -7 30 -7 -13 -15 -46 -8 -129 0 -152 15 -18 10 118 10 165 0z m-336
-22 c58 -10 63 -13 41 -21 -30 -12 -220 -5 -241 8 -13 8 16 14 115 22 11 1 49
-3 85 -9z m-270 -47 c34 -12 15 -21 -66 -28 -67 -6 -221 11 -208 24 20 21 221
24 274 4z m859 11 c-10 -2 -26 -2 -35 0 -10 3 -2 5 17 5 19 0 27 -2 18 -5z
m-269 -34 c-17 -11 -134 -12 -169 -1 -20 6 -14 8 30 12 75 7 157 0 139 -11z
m-927 -19 c37 -7 66 -15 63 -19 -4 -8 -145 -35 -149 -30 -38 57 -37 73 4 64 8
-2 45 -9 82 -15z m601 -6 c55 -10 45 -21 -27 -28 -70 -8 -192 2 -179 15 16 15
141 23 206 13z m580 -21 c-13 -2 -33 -2 -45 0 -13 2 -3 4 22 4 25 0 35 -2 23
-4z m-841 -41 c15 -15 -133 -36 -202 -28 -93 11 -103 18 -45 33 55 14 232 10
247 -5z m562 9 c8 -13 -96 -24 -141 -15 l-38 8 30 7 c45 10 143 10 149 0z
m254 -38 c-10 -2 -26 -2 -35 0 -10 3 -2 5 17 5 19 0 27 -2 18 -5z m-550 -12
c23 -14 -103 -33 -174 -25 -36 3 -62 9 -59 12 17 17 210 28 233 13z m-559 -21
c9 -5 5 -9 -15 -14 -16 -4 -36 -9 -45 -12 -10 -3 -20 5 -27 21 l-12 25 43 -6
c23 -4 48 -10 56 -14z m836 -20 c-11 -5 -56 -9 -100 -9 -53 0 -73 3 -60 9 11
5 56 9 100 9 53 0 73 -3 60 -9z m-575 -20 l25 -7 -30 -8 c-16 -4 -48 -11 -69
-17 -41 -10 -202 -1 -191 11 24 23 209 38 265 21z m797 -6 c-3 -3 -12 -4 -19
-1 -8 3 -5 6 6 6 11 1 17 -2 13 -5z m-513 -24 c35 -1 -2 -17 -65 -28 -52 -10
-176 -5 -165 6 13 12 126 30 165 26 24 -2 53 -4 65 -4z m276 -29 c0 -13 -73
-23 -135 -19 l-50 3 55 11 c70 15 130 17 130 5z m258 -18 c-10 -2 -26 -2 -35
0 -10 3 -2 5 17 5 19 0 27 -2 18 -5z m-847 -23 c61 0 46 -15 -35 -34 -72 -17
-196 -15 -196 4 0 11 132 39 164 34 16 -2 46 -4 67 -4z m294 -29 c50 -11 -107
-40 -170 -32 l-50 7 65 16 c70 17 107 20 155 9z m255 -27 c-25 -8 -67 -13 -95
-12 l-50 3 45 12 c25 6 68 11 95 11 l50 0 -45 -14z m273 -1 c-7 -2 -19 -2 -25
0 -7 3 -2 5 12 5 14 0 19 -2 13 -5z m-802 -50 c33 -6 31 -7 -41 -30 -94 -28
-136 -30 -149 -4 -9 17 -6 20 27 29 45 12 118 14 163 5z m289 -22 c-30 -18
-139 -41 -191 -41 -61 0 -58 8 14 31 54 18 204 26 177 10z m235 -16 c-22 -8
-62 -13 -90 -13 l-50 0 40 13 c22 8 63 13 90 13 l50 0 -40 -13z m268 8 c-7 -2
-19 -2 -25 0 -7 3 -2 5 12 5 14 0 19 -2 13 -5z m-783 -82 c0 -4 -28 -18 -62
-31 l-62 -22 -19 23 c-18 22 -18 23 0 30 26 11 143 11 143 0z m540 -6 c-27
-14 -149 -39 -157 -32 -6 6 82 35 122 40 55 7 60 6 35 -8z m237 9 c-3 -3 -12
-4 -19 -1 -8 3 -5 6 6 6 11 1 17 -2 13 -5z m-487 -8 c0 -14 -132 -46 -189 -45
l-66 1 65 23 c56 20 190 35 190 21z m222 -101 c-18 -8 -56 -17 -85 -20 l-52
-6 45 20 c25 10 63 19 85 20 l40 0 -33 -14z m-496 -4 c-4 -5 -26 -16 -51 -24
-42 -15 -46 -15 -55 3 -16 29 -14 30 51 30 33 0 58 -4 55 -9z m219 -16 c-57
-22 -197 -45 -183 -30 19 20 138 54 188 54 l55 0 -60 -24z m315 -51 c0 -10
-85 -42 -130 -48 l-45 -6 45 21 c25 11 63 24 85 29 22 4 41 8 43 9 1 1 2 -2 2
-5z m-310 -51 c-52 -24 -176 -50 -186 -40 -3 3 28 19 68 36 50 21 89 30 123
30 l50 -1 -55 -25z m-234 2 c-25 -19 -42 -19 -50 0 -4 12 3 15 32 15 35 -1 36
-2 18 -15z m513 -65 c-43 -23 -138 -40 -104 -19 25 16 94 38 120 38 14 0 9 -6
-16 -19z m-281 -40 c-35 -19 -79 -32 -115 -35 l-58 -5 55 26 c62 30 102 42
145 42 27 1 24 -2 -27 -28z m337 -29 c-14 -14 -113 -51 -133 -51 -19 1 31 25
93 45 51 17 51 17 40 6z m-301 -66 c-40 -24 -171 -61 -181 -51 -7 6 94 57 132
67 17 4 44 7 60 8 l30 1 -41 -25z m301 -34 c-13 -12 -98 -42 -104 -36 -2 3 16
13 40 24 48 21 79 27 64 12z m-280 -66 c-22 -14 -58 -30 -80 -36 -22 -5 -48
-12 -57 -15 -35 -10 -17 16 25 37 53 28 84 37 122 38 l30 0 -40 -24z m245 -49
c-8 -8 -26 -17 -40 -20 -19 -5 -17 -2 10 13 42 24 49 26 30 7z m-185 -25 c-9
-16 -108 -69 -134 -73 -13 -1 -26 2 -28 8 -5 14 108 65 160 73 5 0 6 -3 2 -8z
m35 -95 c0 -10 -116 -76 -132 -76 -50 0 4 44 79 65 26 7 49 14 51 14 1 1 2 -1
2 -3z m10 -113 c0 -11 -63 -51 -85 -55 -37 -7 -26 23 17 42 45 21 68 25 68 13z
m30 -108 c0 -7 -68 -45 -79 -45 -23 0 -10 27 22 42 27 13 57 14 57 3z"/>
</g>
</svg>
